<?xml version="1.0" encoding="utf-8"?>
<svg version="1.1" id="Capa_1" xmlns="http://www.w3.org/2000/svg" xmlns:xlink="http://www.w3.org/1999/xlink" x="0px" y="0px"
	 width="90px" height="90px" viewBox="0 0 90 90" style="enable-background:new 0 0 90 90;" xml:space="preserve">
<style type="text/css">
	.st0{fill:#FFFFFF;}
</style>
<title>SmartClide_Deployment_Extension_Icon</title>
<g>
	<path class="st0" d="M5.6,40.2c0-1.1,0-2.3,0-3.4c0.1-0.1,0.1-0.2,0.1-0.3c1-7.7,8.2-13.6,16.3-12.7c0.5,0.1,0.8-0.1,0.9-0.6
		c1.4-4.4,3.9-8.1,7.5-10.9C36.6,7.5,43.6,5.9,51.1,8C59,10.2,64.3,15.3,67,23.1c0.2,0.6,0.5,0.6,1,0.6c1.7,0.1,3.4,0,5,0.4
		c9.3,2.3,14,12.5,9.8,21c-2.8,5.7-7.6,8.4-13.9,8.4c-15.9,0-31.9,0-47.8,0c-1.2,0-2.4-0.1-3.5-0.3c-5.4-1.2-9.1-4.4-11.1-9.6
		C6.1,42.5,5.9,41.4,5.6,40.2z"/>
	<path class="st0" d="M5.6,72.2c0.1-0.4,0.2-0.9,0.4-1.3c1.1-3.7,4.7-6.5,8.3-6.7c4.5-0.2,8.3,2.6,9.5,6.2c0.2,0.5,0.4,0.8,1,0.7
		c0.3,0,0.6,0,0.9,0c1.3,0,1.9-0.7,1.9-2c0-3.4,0-6.8,0-10.1c0-0.3,0-0.6,0-0.9c1.5,0,2.9,0,4.3,0c0.1,0,0.4,0.4,0.4,0.7
		c0,2.5,0,4.9,0,7.4c0,1.3,0,2.7-0.1,4c-0.2,2.7-2.6,5.2-5.3,5.6c-0.8,0.1-1.5,0.1-2.3,0.1c-0.5,0-0.7,0.2-0.8,0.6
		c-1.1,3.2-3.4,5.3-6.7,6.2c-5,1.3-10.4-2.2-11.4-7.3c0-0.2-0.1-0.3-0.2-0.5C5.6,73.9,5.6,73.1,5.6,72.2z"/>
	<path class="st0" d="M62.3,58.1c0,3.6,0,7.1,0,10.6c0,0.3,0,0.6,0,0.8c0.1,0.9,0.7,1.5,1.7,1.6c0.1,0,0.2,0,0.2,0
		c1.6,0.1,1.6,0.1,2.2-1.4c1.6-3.7,5.6-6,9.7-5.6c4,0.4,7.4,3.7,8.1,7.7c0.9,5.7-3.3,10.9-9.1,11c-4.1,0-7.6-2.4-8.9-6.3
		c-0.2-0.6-0.5-0.8-1.1-0.8c-2.4,0.1-4.5-0.5-6.1-2.5c-1-1.3-1.4-2.8-1.4-4.4c0-3.4,0-6.8,0-10.2c0-0.6,0.2-0.8,0.7-0.7
		C59.7,58.1,61,58.1,62.3,58.1z"/>
	<path class="st0" d="M42.7,58.1c1.6,0,3.1,0,4.6,0c0,1.8,0,3.6,0,5.4c0,0.7,0.2,1,0.9,1.2c3.9,1.3,6.4,5.2,6.2,9.3
		c-0.2,4-3.2,7.6-7.2,8.5c-5.8,1.3-11.5-3.1-11.5-9c0-4.1,2.5-7.7,6.3-9c0.6-0.2,0.8-0.4,0.7-1C42.6,61.9,42.7,60,42.7,58.1z"/>
</g>
</svg>
